<?xml version="1.0" standalone="yes"?>
<svg xmlns="http://www.w3.org/2000/svg" width="1000" height="1000">
<path style="fill:#ffffff; stroke:none;" d="M147 100.425C125.971 103.288 107.168 116.45 101.9 138C96.9122 158.401 100 182.114 100 203L100 325L100 730L100 827C100 846.633 98.8992 865.96 112.326 881.999C127.335 899.929 148.628 900 170 900L217 900C230.611 900 244.517 900.905 258 898.866C281.818 895.264 296.991 874.775 299.715 852C302.044 832.518 300 811.625 300 792L300 673L300 269L300 173C300 153.367 301.101 134.04 287.674 118.001C272.917 100.371 252.067 100 231 100L187 100C173.909 100 159.978 98.6585 147 100.425z"/>
<path style="fill:#ffffff; stroke:none;" d="M441 200.465C420.72 204.115 404.917 219.967 400.669 240C399.368 246.134 400 252.761 400 259L400 291L400 394L400 677L400 733C400 752.108 399.404 769.838 413.439 784.829C427.894 800.27 446.552 800 466 800L520 800C532.56 800 546.628 801.762 559 799.536C579.28 795.886 595.083 780.033 599.331 760C600.632 753.866 600 747.239 600 741L600 709L600 606L600 323L600 267C600 247.892 600.596 230.162 586.561 215.171C572.106 199.73 553.448 200 534 200L480 200C467.44 200 453.372 198.238 441 200.465M741 300.465C720.982 304.067 705.588 319.408 700.899 339C697.571 352.906 700 369.735 700 384L700 473L700 617C700 639.644 696.181 664.289 711.808 682.961C726.092 700.028 745.713 700 766 700L820 700C832.56 700 846.628 701.762 859 699.536C879.018 695.933 894.412 680.592 899.101 661C902.429 647.094 900 630.265 900 616L900 527L900 383C900 360.356 903.819 335.711 888.192 317.039C873.908 299.972 854.287 300 834 300L780 300C767.44 300 753.372 298.238 741 300.465z"/>
</svg>
