<?xml version="1.0" standalone="yes"?>
<svg xmlns="http://www.w3.org/2000/svg" width="1000" height="1000">
<path style="fill:#e06666; stroke:none;" d="M747.424 99.7098C742.651 101.088 737.651 101.644 733 103.464C720.027 108.539 710.016 118.349 704.313 131C695.714 150.075 699 173.611 699 194L699 317L699 719L699 819C699 839.435 697.352 860.22 709.36 878C724.598 900.563 750.67 901 775 901L819 901C834.272 901 849.235 901.961 864 897.56C885.276 891.219 898.307 871.191 900.871 849.911C903.052 831.817 901 812.234 901 794L901 683L901 286L901 183C901 163.335 903.046 142.61 892.547 125C877.66 100.029 850.825 99 825 99L788 99L762 99C757.251 99 752.028 98.3802 747.424 99.7098z"/>
<path style="fill:#e06666; stroke:none;" d="M441 199.465C419.982 203.247 404.07 219.246 399.669 240C398.368 246.134 399 252.761 399 259L399 291L399 393L399 676L399 734C399 752.769 398.622 770.16 412.174 784.985C427.155 801.375 446.611 801 467 801L520 801C532.56 801 546.628 802.762 559 800.536C580.018 796.753 595.93 780.754 600.331 760C601.632 753.866 601 747.239 601 741L601 709L601 607L601 324L601 266C601 247.231 601.378 229.84 587.826 215.015C572.845 198.625 553.388 199 533 199L480 199C467.44 199 453.372 197.238 441 199.465M141 299.465C120.232 303.202 104.758 318.69 99.8989 339C96.5717 352.906 99 369.735 99 384L99 473L99 617C99 639.512 95.1949 664.296 110.468 682.999C125.269 701.126 145.713 701 167 701L219 701C231.877 701 246.317 702.818 259 700.536C279.768 696.798 295.242 681.309 300.101 661C303.428 647.094 301 630.265 301 616L301 527L301 383C301 360.488 304.805 335.704 289.532 317.001C274.731 298.874 254.287 299 233 299L181 299C168.123 299 153.683 297.182 141 299.465z"/>
</svg>
