<?xml version="1.0" standalone="yes"?>
<svg xmlns="http://www.w3.org/2000/svg" width="1000" height="1000">
<path style="fill:#e06666; stroke:none;" d="M441 100.465C420.402 104.172 403.31 121.115 400.3 142C399.317 148.821 400 156.119 400 163L400 203L400 326L400 731L400 829C400 848.486 398.441 866.989 411.808 882.961C426.092 900.028 445.713 900 466 900L520 900C532.56 900 546.628 901.762 559 899.536C579.598 895.828 596.69 878.885 599.7 858C600.683 851.179 600 843.881 600 837L600 797L600 674L600 269L600 171C600 151.514 601.559 133.011 588.192 117.039C573.908 99.972 554.287 100 534 100L480 100C467.44 100 453.372 98.2377 441 100.465M141 200.465C120.72 204.115 104.917 219.967 100.669 240C99.3681 246.134 100 252.761 100 259L100 291L100 394L100 677L100 733C100 752.108 99.4039 769.838 113.439 784.829C127.894 800.27 146.552 800 166 800L220 800C232.56 800 246.628 801.762 259 799.536C279.28 795.886 295.083 780.033 299.331 760C300.632 753.866 300 747.239 300 741L300 709L300 606L300 323L300 267C300 247.892 300.596 230.162 286.561 215.171C272.106 199.73 253.448 200 234 200L180 200C167.44 200 153.372 198.238 141 200.465M741 200.465C720.72 204.115 704.917 219.967 700.669 240C699.368 246.135 700 252.761 700 259L700 291L700 394L700 677L700 733C700 752.108 699.404 769.838 713.439 784.829C727.894 800.27 746.552 800 766 800L820 800C832.56 800 846.628 801.762 859 799.536C879.28 795.886 895.083 780.033 899.331 760C900.632 753.866 900 747.239 900 741L900 709L900 606L900 323L900 267C900 247.892 900.596 230.162 886.561 215.171C872.106 199.73 853.448 200 834 200L780 200C767.44 200 753.372 198.238 741 200.465z"/>
</svg>
