<?xml version="1.0" standalone="yes"?>
<svg xmlns="http://www.w3.org/2000/svg" width="500" height="500">
<path style="fill:#ffffff; stroke:none;" d="M326 51.5293C317.534 53.4727 311.876 60.1236 306 66L279 93L173 199C158.095 213.905 137.844 229.355 140.171 253C141.949 271.081 153.832 281.832 166 294C181.956 309.956 198.531 325.49 213.91 342C241.374 371.482 270.501 399.501 299 428C310.965 439.965 324.157 454.998 343 447.521C358.18 441.498 365.175 422.386 357.351 408C352.746 399.533 343.75 392.75 337 386L236 285L211 260C208.61 257.609 203.056 253.753 203.056 250C203.056 245.971 209.422 241.578 212 239L241 210L316 135C328.512 122.488 342.35 110.5 353.787 97C370.69 77.0472 351.534 45.6679 326 51.5293z"/>
</svg>
