<?xml version="1.0" standalone="yes"?>
<svg xmlns="http://www.w3.org/2000/svg" width="500" height="500">
<path style="fill:#e06666; stroke:none;" d="M160 52.5324C139.151 57.4995 135.636 83.6601 148.185 98C160.19 111.718 174.11 124.11 187 137L263 213L290 240C292.478 242.479 298.869 246.903 297.793 251C296.545 255.755 289.369 260.631 286 264L257 293L184 366C171.675 378.325 157.16 390.18 146.529 404C132.946 421.658 145.359 448.267 168 447.981C179.393 447.838 186.415 440.585 194 433L219 408L326 301C340.952 286.048 361.798 269.831 358.711 246C356.216 226.743 341.984 214.984 329 202L261 134L198 71C187.117 60.1172 176.988 48.4852 160 52.5324z"/>
</svg>
